<?xml version="1.0" encoding="UTF-8"?>
<svg width="155.4mm" height="176mm" version="1.1" viewBox="0 0 155.4 176" xmlns="http://www.w3.org/2000/svg" xmlns:cc="http://creativecommons.org/ns#" xmlns:dc="http://purl.org/dc/elements/1.1/" xmlns:rdf="http://www.w3.org/1999/02/22-rdf-syntax-ns#" xmlns:xlink="http://www.w3.org/1999/xlink">
 <title>radius vector - position vector - ortsvektor - radijvektor</title>
 <defs>
  <marker id="b" overflow="visible" orient="auto">
   <path transform="scale(-.6)" d="m8.719 4.034-10.93-4.018 10.93-4.018c-1.745 2.372-1.735 5.617-6e-7 8.035z" fill="#d40000" fill-rule="evenodd" stroke="#d40000" stroke-linejoin="round" stroke-width=".625"/>
  </marker>
  <marker id="c" overflow="visible" orient="auto">
   <path transform="scale(.6) rotate(180) translate(0)" d="m8.719 4.034-10.93-4.018 10.93-4.018c-1.745 2.372-1.735 5.617-6e-7 8.035z" fill-rule="evenodd" stroke="#000" stroke-linejoin="round" stroke-width=".625"/>
  </marker>
  <marker id="d" overflow="visible" orient="auto">
   <path transform="scale(.6) rotate(180) translate(0)" d="m8.719 4.034-10.93-4.018 10.93-4.018c-1.745 2.372-1.735 5.617-6e-7 8.035z" fill-rule="evenodd" stroke="#000" stroke-linejoin="round" stroke-width=".625"/>
  </marker>
  <marker id="e" overflow="visible" orient="auto">
   <path transform="scale(-.6)" d="m8.719 4.034-10.93-4.018 10.93-4.018c-1.745 2.372-1.735 5.617-6e-7 8.035z" fill="#d40000" fill-rule="evenodd" stroke="#d40000" stroke-linejoin="round" stroke-width=".625"/>
  </marker>
  <marker id="g" overflow="visible" orient="auto">
   <path transform="scale(.6) rotate(180) translate(0)" d="m8.719 4.034-10.93-4.018 10.93-4.018c-1.745 2.372-1.735 5.617-6e-7 8.035z" fill-rule="evenodd" stroke="#000" stroke-linejoin="round" stroke-width=".625"/>
  </marker>
  <marker id="h" overflow="visible" orient="auto">
   <path transform="matrix(-.3 0 0 -.3 .69 0)" d="m8.719 4.034-10.93-4.018 10.93-4.018c-1.745 2.372-1.735 5.617-6e-7 8.035z" fill="#06f" fill-rule="evenodd" stroke="#06f" stroke-linejoin="round" stroke-width=".625"/>
  </marker>
  <marker id="f" overflow="visible" orient="auto">
   <path transform="scale(-.6)" d="m8.719 4.034-10.93-4.018 10.93-4.018c-1.745 2.372-1.735 5.617-6e-7 8.035z" fill="#d40000" fill-rule="evenodd" stroke="#d40000" stroke-linejoin="round" stroke-width=".625"/>
  </marker>
  <marker id="i" overflow="visible" orient="auto">
   <path transform="scale(-.6)" d="m8.719 4.034-10.93-4.018 10.93-4.018c-1.745 2.372-1.735 5.617-6e-7 8.035z" fill="#06f" fill-rule="evenodd" stroke="#06f" stroke-linejoin="round" stroke-width=".625"/>
  </marker>
  <radialGradient id="a" cx="119.9" cy="77.98" r="2" gradientTransform="matrix(.5526 0 0 .5526 47.44 37.38)" gradientUnits="userSpaceOnUse">
   <stop stop-color="#acf" offset="0"/>
   <stop stop-color="#0055d4" offset="1"/>
  </radialGradient>
 </defs>
 <metadata>
  <rdf:RDF>
   <cc:Work rdf:about="">
    <dc:format>image/svg+xml</dc:format>
    <dc:type rdf:resource="http://purl.org/dc/dcmitype/StillImage"/>
    <dc:title>radius vector - position vector - ortsvektor - radijvektor</dc:title>
    <dc:date>2020-10-26</dc:date>
    <dc:creator>
     <cc:Agent>
      <dc:title>Ivo Pletikosic</dc:title>
     </cc:Agent>
    </dc:creator>
    <dc:description>Position vector represents a point P in space in relation to an arbitrary reference O</dc:description>
    <cc:license rdf:resource="http://creativecommons.org/licenses/by-sa/4.0/"/>
   </cc:Work>
   <cc:License rdf:about="http://creativecommons.org/licenses/by-sa/4.0/">
    <cc:permits rdf:resource="http://creativecommons.org/ns#Reproduction"/>
    <cc:permits rdf:resource="http://creativecommons.org/ns#Distribution"/>
    <cc:requires rdf:resource="http://creativecommons.org/ns#Notice"/>
    <cc:requires rdf:resource="http://creativecommons.org/ns#Attribution"/>
    <cc:permits rdf:resource="http://creativecommons.org/ns#DerivativeWorks"/>
    <cc:requires rdf:resource="http://creativecommons.org/ns#ShareAlike"/>
   </cc:License>
  </rdf:RDF>
 </metadata>
 <g transform="translate(-28.7 -22.58)" fill="none" stroke="#000" stroke-width=".8">
  <path d="m68.47 131h110.4" marker-end="url(#d)"/>
  <path d="m68.47 131v-105.8" marker-end="url(#g)"/>
  <path d="m68.47 131-34.92 59.29" marker-end="url(#c)"/>
 </g>
 <g transform="translate(-28.7 -22.58)">
  <path d="m68.47 131h64.48" fill="#d40000" marker-end="url(#f)" stroke="#d40000" stroke-width="1.5"/>
  <path d="m68.47 131-21.16 36" fill="#d40000" marker-end="url(#e)" stroke="#d40000" stroke-width="1.5"/>
  <path d="m68.47 131v-76.65" fill="#d40000" marker-end="url(#b)" stroke="#d40000" stroke-width="1.5"/>
  <path d="m69.27 130.2 41.8-46.64" fill="none" marker-end="url(#i)" stroke="#06f" stroke-linecap="round" stroke-width="2"/>
  <g transform="translate(2.25 -3.609)" fill="#333" stop-color="#000000" stroke-width=".2646" aria-label="x">
   <path d="m36.26 196.3h1.092s0.0889-0.2921 0.762-1.194l0.9398-1.245 1.689 2.476c0.254-0.0254 0.5207-0.0381 0.7747-0.0381 0.2667 0 0.5207 0.0127 0.7874 0.0381v-0.381l-0.3175-0.0381c-0.1524-0.0127-0.3048-0.1143-0.4445-0.3048l-1.88-2.54 1.803-2.108c0.0762-0.0889 0.2159-0.1397 0.4318-0.1397h0.1778v-0.3556h-1.041l-1.575 2.222-0.9652-1.473c-0.1905-0.2794-0.3302-0.4445-0.762-0.8763l-1.473 0.254 0.0635 0.3302 0.2667 0.0254c0.2286 0.0254 0.508 0.1905 0.635 0.3683l1.524 2.21-1.892 2.235c-0.0889 0.1143-0.254 0.1905-0.381 0.1905h-0.2159z" stroke-width=".2646"/>
  </g>
  <g transform="translate(-1.588)" fill="#333" stop-color="#000000" stroke-width=".2646" aria-label="y">
   <path d="m169.6 134.8 0.2286 0.0254c0.3175 0.0381 0.4826 0.1778 0.6604 0.6223l2.096 5.131-0.2921 0.7747c-0.4064 1.067-0.9017 1.664-1.384 1.664-0.2032 0-0.4318-0.1016-0.6477-0.2921h-0.1651l-0.3048 0.9525c0.2413 0.127 0.4445 0.1905 0.6858 0.1905 0.8509 0 1.397-0.4572 1.88-1.562l2.578-5.944c0.508-1.156 0.7493-1.511 1.067-1.537l0.3556-0.0254v-0.3556c-0.4064 0.0254-0.8001 0.0381-1.206 0.0381s-0.8001-0.0127-1.206-0.0381v0.3556l0.3302 0.0254c0.5334 0.0381 0.6477 0.1905 0.4572 0.6477l-1.511 3.708c-0.2794-0.4826-0.4064-0.7747-0.6477-1.397l-0.8128-2.134c-0.2159-0.5588-0.1905-0.8001 0.3048-0.8255l0.4826-0.0254v-0.3556c-0.4953 0.0254-0.9779 0.0381-1.473 0.0381s-0.9779-0.0127-1.473-0.0381z" stroke-width=".2646"/>
  </g>
  <g fill="#333" stop-color="#000000" stroke-width=".2646" aria-label="z">
   <path d="m58.18 32.23 0.0762 0.254c0.6477-0.0254 1.295-0.0381 1.943-0.0381 1.168 0 2.337 0.0127 3.505 0.0381 0-0.2921 0.0381-0.5969 0.1143-1.206l0.0762-0.5969h-0.381l-0.2286 1.003c-0.0508 0.2286-0.5842 0.3175-1.803 0.3175h-1.714l3.988-5.042v-0.381c-0.5842 0.0254-1.168 0.0381-1.753 0.0381-1.054 0-2.096-0.0127-3.15-0.0381-0.0254 0.6477-0.0381 0.8001-0.1143 1.676h0.381l0.1524-0.8636c0.0508-0.2667 0.2794-0.3302 1.219-0.3302h1.816c-0.2667 0.4191-0.4699 0.7112-0.8255 1.143z" stroke-width=".2646"/>
  </g>
  <g transform="translate(-1.187 1.744)">
   <path d="m86.07 90.39h7.02" fill="none" marker-end="url(#h)" stroke="#06f" stroke-width=".9"/>
   <g fill="#06f" stop-color="#000000" stroke-width=".2646" aria-label="r">
    <path d="m84.87 94.48 0.1334 0.381 0.6096-0.4c0.5334-0.3429 0.743-0.4382 0.9144-0.4382 0.1905 0 0.3238 0.1714 0.3238 0.4191 0 1.105-0.8192 5.029-1.581 7.468l0.1905 0.1334c0.4191-0.1334 0.8382-0.2096 1.276-0.2858l0.4953-2.286c0.3429-1.581 0.781-2.591 1.619-3.677 0.6477-0.8382 1.162-1.238 1.581-1.238 0.2858 0 0.4762 0.09525 0.6858 0.362h0.2667c0.05715-0.7239 0.1524-1.334 0.3048-2.115-0.2096-0.09525-0.2858-0.1143-0.381-0.1143-0.5906 0-1.181 0.4572-1.867 1.429-0.6477 0.9334-1.314 1.848-1.791 2.877l0.4953-2.4c0.09525-0.4191 0.2286-0.8572 0.2286-1.295 0-0.381-0.1524-0.6096-0.4382-0.6096-0.4 0-1.124 0.4-2.534 1.41z" fill="#06f" stroke-width=".2646"/>
   </g>
  </g>
  <path d="m113.3 168.7 21.79-37.74m-66.35-78.09 44.55 27.76v88.07h-66.36" fill="none" stroke="#000" stroke-dasharray="0.5, 0.5" stroke-dashoffset="1.05" stroke-width=".5"/>
  <circle cx="113.5" cy="80.67" r="1.05" fill="url(#a)" stop-color="#000000" stroke="#0055d4" stroke-linecap="round" stroke-width=".2" style="paint-order:fill markers stroke"/>
  <g transform="translate(.2904 .8713)" fill="#333" stop-color="#000000" stroke-width=".2646" aria-label="O">
   <path d="m56.64 128.8c0 2.222 1.545 3.821 3.683 3.821 2.371 0 4.17-1.767 4.17-4.096 0-2.222-1.482-3.619-3.831-3.619-2.413 0-4.022 1.566-4.022 3.895zm1.132-0.3916c0-1.958 0.9737-3.059 2.709-3.059 1.81 0 2.879 1.291 2.879 3.492 0 2.096-0.9737 3.334-2.614 3.334-1.778 0-2.974-1.503-2.974-3.768z" stroke-width=".2646"/>
  </g>
  <g transform="translate(-72.59 45.86)" fill="#06f" stop-color="#000000" stroke-width=".2646" aria-label="P(x,y,z)">
   <path d="m185.3 30.68c0.726-0.02963 1.437-0.04445 2.163-0.04445 0.726 0 1.452 0.01482 2.178 0.04445v-0.4445l-0.7112-0.04445c-0.6816-0.04445-0.7556-0.163-0.7556-1.334v-7.734c0.5186-0.1185 0.9483-0.1778 1.452-0.1778 1.6 0 2.46 0.7408 2.46 2.148 0 1.334-0.9038 2.267-2.193 2.267-0.3112 0-0.5334-0.02963-0.9186-0.1482l0.1482 0.5334c0.3556 0.07408 0.563 0.0889 0.8594 0.0889 2.03 0 3.586-1.378 3.586-3.156 0-1.422-1.156-2.297-3.037-2.297-0.8446 0-1.674 0.04445-2.519 0.04445-0.9038 0-1.793-0.01482-2.697-0.04445v0.4445l0.6668 0.04445c0.6668 0.04445 0.7853 0.2371 0.7853 1.334v6.653c0 1.171-0.0741 1.289-0.7556 1.334l-0.7112 0.04445z" stroke-width=".2646"/>
   <path d="m195.8 27.52c0 2.371 1.245 4.682 3.289 6.727 0.0445-0.0889 0.1037-0.163 0.1778-0.2371 0.0741-0.07408 0.1482-0.1334 0.2371-0.1778-1.882-1.882-2.756-4.134-2.756-6.312v-1.185c0-2.178 0.8742-4.43 2.756-6.312-0.0889-0.04445-0.163-0.1037-0.2371-0.1778-0.0741-0.07408-0.1334-0.1482-0.1778-0.2371-2.045 2.045-3.289 4.356-3.289 6.727z" stroke-width=".2646"/>
   <path d="m200.8 30.62c0.2223 0.1185 0.4593 0.1778 0.6371 0.1778 0.489 0 1.067-0.4297 1.526-1.126l1.126-1.734 0.163 1.022c0.2074 1.259 0.5334 1.837 1.067 1.837 0.326 0 0.8001-0.2519 1.274-0.6816l0.726-0.6519-0.1334-0.2815c-0.5334 0.4445-0.9038 0.6668-1.141 0.6668-0.2222 0-0.4149-0.1482-0.563-0.4445-0.1334-0.2815-0.2963-0.8297-0.3704-1.259l-0.2667-1.496 0.5186-0.726c0.6964-0.9631 1.096-1.304 1.556-1.304 0.2371 0 0.4149 0.1185 0.489 0.3408l0.2074-0.05927 0.2222-1.259c-0.1778-0.1037-0.3112-0.1482-0.4445-0.1482-0.5927 0-1.185 0.5334-2.104 1.897l-0.5482 0.8149-0.0889-0.7112c-0.1778-1.467-0.5778-2-1.452-2-0.3852 0-0.7112 0.1185-0.8446 0.3112l-0.8594 1.23 0.2519 0.1482c0.4445-0.5038 0.7408-0.7112 1.022-0.7112 0.489 0 0.8149 0.6075 1.067 2.06l0.163 0.9186-0.5927 0.9186c-0.6371 0.9927-1.141 1.467-1.556 1.467-0.2222 0-0.3852-0.05927-0.4149-0.1334l-0.163-0.4149-0.2963 0.04445c0 0.2963-0.0296 0.489-0.1185 0.9631-0.0296 0.1778-0.0444 0.2223-0.0593 0.326z"/>
   <path d="m207.6 32.77 0.2074 0.163 0.6075-0.2815c1.2-1.556 1.763-2.489 2.178-3.63l-0.2074-0.2074c-0.4 0.1334-0.6668 0.2223-1.452 0.4445-0.1037 1.126-0.4741 2.089-1.334 3.512z" stroke-width=".2646"/>
   <path d="m212.4 33.57c0 0.6371 0.5482 1.156 1.215 1.156 1.571 0 3.2-1.837 4.075-4.578l2.089-6.519-0.163-0.1334c-0.4297 0.163-0.7705 0.2519-1.096 0.2815l-0.5186 1.956c-0.1778 0.6964-0.6964 1.778-1.185 2.504-0.5186 0.7557-1.245 1.408-1.571 1.408s-0.2963-0.7112-0.2815-0.9038l0.2222-2.874c0.0296-0.4593 0.0593-1.022 0.0593-1.437 0-0.6668-0.1037-0.9335-0.3556-0.9335-0.1926 0-0.4 0.1037-1.111 0.5927l-1.215 0.8297 0.163 0.2667 0.7408-0.4445c0.0741-0.05927 0.2667-0.1778 0.3704-0.1778 0.3852 0 0.326 0.7557 0.3112 0.9927l-0.2519 3.6-0.0148 0.5927c-0.0148 0.6223 0.2667 1.052 0.6371 1.052 0.5482 0 1.793-1.259 2.904-2.934l-0.726 2.534c-0.7557 2.623-1.496 3.704-2.534 3.704-0.5186 0-0.9186-0.4001-0.9186-0.9186 0-0.07408 0.0148-0.1926 0.0296-0.326l-0.1482-0.05927-0.7112 0.5038c-0.0148 0.1037-0.0148 0.1926-0.0148 0.2667z"/>
   <path d="m219.4 32.77 0.2074 0.163 0.6075-0.2815c1.2-1.556 1.763-2.489 2.178-3.63l-0.2074-0.2074c-0.4 0.1334-0.6668 0.2223-1.452 0.4445-0.1037 1.126-0.4741 2.089-1.334 3.512z" stroke-width=".2646"/>
   <path d="m224.4 30.32 0.1334 0.4001c0.4297-0.3408 0.8297-0.4741 1.348-0.4741 0.3704 0 0.7853 0.05927 1.556 0.2519 0.889 0.2074 1.348 0.2963 1.748 0.2963 0.1778 0 0.3112-0.02963 0.7408-0.1482 0.163-0.9186 0.2815-1.422 0.4445-2.119h-0.326l-0.326 0.889c-0.1037 0.2667-0.2667 0.3704-0.5778 0.3704-0.326 0-0.6668-0.0889-0.9927-0.163-0.489-0.1037-0.9927-0.1778-1.274-0.1778-0.4741 0-0.8742 0.0889-1.408 0.3112l5.023-5.66 0.0889-0.4741-0.1334-0.1334-0.3408 0.3408c-0.1482 0.1482-0.2963 0.2074-0.5038 0.2074-0.5038 0-1.274-0.1185-1.985-0.3112-0.3852-0.1037-0.7853-0.2371-1.185-0.2371-0.2519 0-0.5482 0.04445-0.9038 0.1482l-0.4741 1.808h0.3112l0.4445-0.8594c0.2519-0.05927 0.3852-0.07408 0.5778-0.07408 0.2074 0 0.3704 0.01482 0.6668 0.07408 0.5038 0.1037 0.889 0.1482 1.2 0.1482 0.5334 0 0.889-0.0889 1.378-0.3408z"/>
   <path d="m232.2 33.83c0.0889 0.04445 0.163 0.1037 0.2371 0.1778 0.0741 0.07408 0.1334 0.1482 0.1778 0.2371 2.045-2.045 3.289-4.356 3.289-6.727v-1.185c0-2.371-1.245-4.682-3.289-6.727-0.0444 0.0889-0.1037 0.163-0.1778 0.2371-0.0741 0.07408-0.1482 0.1334-0.2371 0.1778 1.882 1.882 2.756 4.134 2.756 6.312v1.185c0 2.178-0.8742 4.43-2.756 6.312z" stroke-width=".2646"/>
  </g>
  <g transform="translate(-177.9 3.213)" fill="#d40000" stroke-width=".2646">
   <g stop-color="#000000" aria-label="xex">
    <path d="m211.5 149.8c0.1905 0.1016 0.3937 0.1524 0.5461 0.1524 0.4191 0 0.9144-0.3683 1.308-0.9652l0.9652-1.486 0.1397 0.8763c0.1778 1.08 0.4572 1.575 0.9144 1.575 0.2794 0 0.6858-0.2159 1.092-0.5842l0.6223-0.5588-0.1143-0.2413c-0.4572 0.381-0.7747 0.5715-0.9779 0.5715-0.1905 0-0.3556-0.127-0.4826-0.381-0.1143-0.2413-0.254-0.7112-0.3175-1.08l-0.2286-1.283 0.4445-0.6223c0.5969-0.8255 0.9398-1.118 1.334-1.118 0.2032 0 0.3556 0.1016 0.4191 0.2921l0.1778-0.0508 0.1905-1.08c-0.1524-0.0889-0.2667-0.127-0.381-0.127-0.508 0-1.016 0.4572-1.803 1.626l-0.4699 0.6985-0.0762-0.6096c-0.1524-1.257-0.4953-1.714-1.245-1.714-0.3302 0-0.6096 0.1016-0.7239 0.2667l-0.7366 1.054 0.2159 0.127c0.381-0.4318 0.635-0.6096 0.8763-0.6096 0.4191 0 0.6985 0.5207 0.9144 1.765l0.1397 0.7874-0.508 0.7874c-0.5461 0.8509-0.9779 1.257-1.334 1.257-0.1905 0-0.3302-0.0508-0.3556-0.1143l-0.1397-0.3556-0.254 0.0381c0 0.254-0.0254 0.4191-0.1016 0.8255-0.0254 0.1524-0.0381 0.1905-0.0508 0.2794z"/>
    <path d="m219.2 147c0 0.8001 0.1778 1.486 0.5334 1.968 0.4953 0.6731 1.359 1.067 2.311 1.067 0.4699 0 0.9398-0.1016 1.46-0.3302 0.3429-0.1397 0.6096-0.3048 0.6604-0.381l0.254-0.4318-0.1651-0.127c-0.8128 0.4826-1.105 0.5969-1.651 0.5969-0.8255 0-1.511-0.3683-1.867-0.9906-0.2413-0.4191-0.3302-0.7747-0.3556-1.511h1.854c0.8763 0 1.422-0.0381 2.299-0.1778 0.0127-0.1778 0.0254-0.2921 0.0254-0.4445 0-1.46-0.9398-2.413-2.362-2.413-0.4699 0-1.016 0.1651-1.537 0.4699-1.041 0.5969-1.46 1.384-1.46 2.705zm1.206-0.6477c0-0.5969 0.0508-0.8763 0.2159-1.206 0.2667-0.5588 0.8128-0.9017 1.422-0.9017 0.4191 0 0.7493 0.1651 0.9779 0.508 0.2794 0.4191 0.4064 0.7874 0.4064 1.638l-1.422 0.0381c-0.5842 0-0.9144-0.0127-1.6-0.0762z" fill="#d40000" stroke-width=".2646"/>
    <path d="m225.1 151.7h0.8192s0.0667-0.2191 0.5715-0.8954l0.7048-0.9334 1.267 1.857c0.1905-0.019 0.3905-0.0286 0.581-0.0286 0.2 0 0.3905 0.01 0.5906 0.0286v-0.2858l-0.2381-0.0286c-0.1143-0.01-0.2286-0.0857-0.3334-0.2286l-1.41-1.905 1.353-1.581c0.0572-0.0667 0.1619-0.1048 0.3238-0.1048h0.1334v-0.2667h-0.781l-1.181 1.667-0.7239-1.105c-0.1429-0.2096-0.2476-0.3334-0.5715-0.6572l-1.105 0.1905 0.0476 0.2476 0.2 0.019c0.1714 0.019 0.381 0.1429 0.4762 0.2762l1.143 1.657-1.419 1.676c-0.0667 0.0857-0.1905 0.1429-0.2858 0.1429h-0.1619z" fill="#d40000"/>
   </g>
   <g transform="translate(134.6 -78.15)" stop-color="#000000" aria-label="^">
    <path d="m87.94 219.6 2.245 2.303h-0.6325l-2.017-1.575-2.013 1.575h-0.6367l2.245-2.303z" fill="#d40000" stroke-width=".2646"/>
   </g>
  </g>
  <g transform="translate(-81.53 -41.57)" fill="#d40000" stroke-width=".2646">
   <g transform="translate(.5045 -.02344)" stop-color="#000000" aria-label="yey">
    <path d="m210.8 168.2c0 0.5461 0.4699 0.9906 1.041 0.9906 1.346 0 2.743-1.575 3.492-3.924l1.791-5.588-0.1397-0.1143c-0.3683 0.1397-0.6604 0.2159-0.9398 0.2413l-0.4445 1.676c-0.1524 0.5969-0.5969 1.524-1.016 2.146-0.4445 0.6477-1.067 1.206-1.346 1.206s-0.254-0.6096-0.2413-0.7747l0.1905-2.464c0.0254-0.3937 0.0508-0.8763 0.0508-1.232 0-0.5715-0.0889-0.8001-0.3048-0.8001-0.1651 0-0.3429 0.0889-0.9525 0.508l-1.041 0.7112 0.1397 0.2286 0.635-0.381c0.0635-0.0508 0.2286-0.1524 0.3175-0.1524 0.3302 0 0.2794 0.6477 0.2667 0.8509l-0.2159 3.086-0.0127 0.508c-0.0127 0.5334 0.2286 0.9017 0.5461 0.9017 0.4699 0 1.537-1.08 2.489-2.515l-0.6223 2.172c-0.6477 2.248-1.283 3.175-2.172 3.175-0.4445 0-0.7874-0.3429-0.7874-0.7874 0-0.0635 0.0127-0.1651 0.0254-0.2794l-0.127-0.0508-0.6096 0.4318c-0.0127 0.0889-0.0127 0.1651-0.0127 0.2286z"/>
    <path d="m218.7 162.9c0 0.8001 0.1778 1.486 0.5334 1.968 0.4953 0.6731 1.359 1.067 2.311 1.067 0.4699 0 0.9398-0.1016 1.46-0.3302 0.3429-0.1397 0.6096-0.3048 0.6604-0.381l0.254-0.4318-0.1651-0.127c-0.8128 0.4826-1.105 0.5969-1.651 0.5969-0.8255 0-1.511-0.3683-1.867-0.9906-0.2413-0.4191-0.3302-0.7747-0.3556-1.511h1.854c0.8763 0 1.422-0.0381 2.299-0.1778 0.0127-0.1778 0.0254-0.2921 0.0254-0.4445 0-1.46-0.9398-2.413-2.362-2.413-0.4699 0-1.016 0.1651-1.537 0.4699-1.041 0.5969-1.46 1.384-1.46 2.705zm1.206-0.6477c0-0.5969 0.0508-0.8763 0.2159-1.206 0.2667-0.5588 0.8128-0.9017 1.422-0.9017 0.4191 0 0.7493 0.1651 0.9779 0.508 0.2794 0.4191 0.4064 0.7874 0.4064 1.638l-1.422 0.0381c-0.5842 0-0.9144-0.0127-1.6-0.0762z" fill="#d40000" stroke-width=".2646"/>
    <path d="m224.5 163.5 0.1714 0.0191c0.2381 0.0286 0.362 0.1334 0.4953 0.4667l1.572 3.848-0.2191 0.581c-0.3048 0.8001-0.6763 1.248-1.038 1.248-0.1524 0-0.3238-0.0762-0.4858-0.2191h-0.1238l-0.2286 0.7144c0.181 0.0952 0.3334 0.1429 0.5144 0.1429 0.6382 0 1.048-0.3429 1.41-1.172l1.934-4.458c0.381-0.8668 0.562-1.133 0.8001-1.153l0.2667-0.0191v-0.2667c-0.3048 0.019-0.6001 0.0286-0.9049 0.0286s-0.6001-0.01-0.9049-0.0286v0.2667l0.2476 0.0191c0.4 0.0286 0.4858 0.1429 0.3429 0.4858l-1.133 2.781c-0.2096-0.362-0.3048-0.581-0.4858-1.048l-0.6096-1.6c-0.1619-0.4191-0.1429-0.6001 0.2286-0.6191l0.362-0.0191v-0.2667c-0.3715 0.019-0.7334 0.0286-1.105 0.0286-0.3715 0-0.7334-0.01-1.105-0.0286z" fill="#d40000"/>
   </g>
   <g transform="translate(134.6 -62.28)" stop-color="#000000" aria-label="^">
    <path d="m87.94 219.6 2.245 2.303h-0.6325l-2.017-1.575-2.013 1.575h-0.6367l2.245-2.303z" fill="#d40000" stroke-width=".2646"/>
   </g>
  </g>
  <g transform="translate(-163.6 -109.2)" fill="#d40000" stroke-width=".2646">
   <g transform="translate(.5092 .04028)" stop-color="#000000" aria-label="zez">
    <path d="m211.6 181.3 0.1143 0.3429c0.3683-0.2921 0.7112-0.4064 1.156-0.4064 0.3175 0 0.6731 0.0508 1.334 0.2159 0.762 0.1778 1.156 0.254 1.499 0.254 0.1524 0 0.2667-0.0254 0.635-0.127 0.1397-0.7874 0.2413-1.219 0.381-1.816h-0.2794l-0.2794 0.762c-0.0889 0.2286-0.2286 0.3175-0.4953 0.3175-0.2794 0-0.5715-0.0762-0.8509-0.1397-0.4191-0.0889-0.8509-0.1524-1.092-0.1524-0.4064 0-0.7493 0.0762-1.206 0.2667l4.305-4.851 0.0762-0.4064-0.1143-0.1143-0.2921 0.2921c-0.127 0.127-0.254 0.1778-0.4318 0.1778-0.4318 0-1.092-0.1016-1.702-0.2667-0.3302-0.0889-0.6731-0.2032-1.016-0.2032-0.2159 0-0.4699 0.0381-0.7747 0.127l-0.4064 1.549h0.2667l0.381-0.7366c0.2159-0.0508 0.3302-0.0635 0.4953-0.0635 0.1778 0 0.3175 0.0127 0.5715 0.0635 0.4318 0.0889 0.762 0.127 1.029 0.127 0.4572 0 0.762-0.0762 1.181-0.2921z"/>
    <path d="m218.6 178.8c0 0.8001 0.1778 1.486 0.5334 1.968 0.4953 0.6731 1.359 1.067 2.311 1.067 0.4699 0 0.9398-0.1016 1.46-0.3302 0.3429-0.1397 0.6096-0.3048 0.6604-0.381l0.254-0.4318-0.1651-0.127c-0.8128 0.4826-1.105 0.5969-1.651 0.5969-0.8255 0-1.511-0.3683-1.867-0.9906-0.2413-0.4191-0.3302-0.7747-0.3556-1.511h1.854c0.8763 0 1.422-0.0381 2.299-0.1778 0.0127-0.1778 0.0254-0.2921 0.0254-0.4445 0-1.46-0.9398-2.413-2.362-2.413-0.4699 0-1.016 0.1651-1.537 0.4699-1.041 0.5969-1.46 1.384-1.46 2.705zm1.206-0.6477c0-0.5969 0.0508-0.8763 0.2159-1.206 0.2667-0.5588 0.8128-0.9017 1.422-0.9017 0.4191 0 0.7493 0.1651 0.9779 0.508 0.2794 0.4191 0.4064 0.7874 0.4064 1.638l-1.422 0.0381c-0.5842 0-0.9144-0.0127-1.6-0.0762z" fill="#d40000" stroke-width=".2646"/>
    <path d="m224.6 183.3 0.0572 0.1905c0.4858-0.0191 0.9716-0.0286 1.457-0.0286 0.8763 0 1.753 0.01 2.629 0.0286 0-0.2191 0.0286-0.4477 0.0857-0.9049l0.0571-0.4477h-0.2858l-0.1714 0.7525c-0.0381 0.1714-0.4382 0.2381-1.353 0.2381h-1.286l2.991-3.781v-0.2858c-0.4382 0.019-0.8763 0.0286-1.314 0.0286-0.7906 0-1.572-0.01-2.362-0.0286-0.0191 0.4858-0.0286 0.6001-0.0857 1.257h0.2858l0.1143-0.6477c0.0381-0.2 0.2096-0.2476 0.9144-0.2476h1.362c-0.2 0.3143-0.3524 0.5334-0.6191 0.8572z" fill="#d40000"/>
   </g>
   <g transform="translate(134.6 -46.4)" stop-color="#000000" aria-label="^">
    <path d="m87.94 219.6 2.245 2.303h-0.6325l-2.017-1.575-2.013 1.575h-0.6367l2.245-2.303z" fill="#d40000" stroke-width=".2646"/>
   </g>
  </g>
 </g>
</svg>
